<svg width="16" height="16" viewBox="0 0 16 16" fill="none" xmlns="http://www.w3.org/2000/svg">
<path d="M0.5 5.75C0.5 4.3355 0.5 3.629 0.9395 3.1895C1.379 2.75 2.0855 2.75 3.5 2.75H12.5C13.9145 2.75 14.621 2.75 15.0605 3.1895C15.5 3.629 15.5 4.3355 15.5 5.75C15.5 6.10325 15.5 6.28025 15.3905 6.3905C15.2802 6.5 15.1025 6.5 14.75 6.5H1.25C0.89675 6.5 0.71975 6.5 0.6095 6.3905C0.5 6.28025 0.5 6.1025 0.5 5.75Z" fill="#E3BD56"/>
<path fill-rule="evenodd" clip-rule="evenodd" d="M0.5 12.5C0.5 13.9145 0.5 14.621 0.9395 15.0605C1.379 15.5 2.0855 15.5 3.5 15.5H12.5C13.9145 15.5 14.621 15.5 15.0605 15.0605C15.5 14.621 15.5 13.9145 15.5 12.5V8.75C15.5 8.39675 15.5 8.21975 15.3905 8.1095C15.2802 8 15.1025 8 14.75 8H1.25C0.89675 8 0.71975 8 0.6095 8.1095C0.5 8.21975 0.5 8.3975 0.5 8.75V12.5ZM4.25 10.25C4.25 9.89675 4.25 9.71975 4.3595 9.6095C4.46975 9.5 4.6475 9.5 5 9.5H6.5C6.85325 9.5 7.03025 9.5 7.1405 9.6095C7.25 9.71975 7.25 9.89675 7.25 10.25C7.25 10.6033 7.25 10.7803 7.1405 10.8905C7.03025 11 6.8525 11 6.5 11H5C4.64675 11 4.46975 11 4.3595 10.8905C4.25 10.7803 4.25 10.6025 4.25 10.25ZM4.3595 12.6095C4.25 12.7197 4.25 12.8975 4.25 13.25C4.25 13.6025 4.25 13.7803 4.3595 13.8905C4.46975 14 4.6475 14 5 14H6.5C6.85325 14 7.03025 14 7.1405 13.8905C7.25 13.7803 7.25 13.6025 7.25 13.25C7.25 12.8975 7.25 12.7197 7.1405 12.6095C7.03025 12.5 6.8525 12.5 6.5 12.5H5C4.64675 12.5 4.46975 12.5 4.3595 12.6095ZM8.75 10.25C8.75 9.89675 8.75 9.71975 8.8595 9.6095C8.96975 9.5 9.1475 9.5 9.5 9.5H11C11.3532 9.5 11.5302 9.5 11.6405 9.6095C11.75 9.71975 11.75 9.89675 11.75 10.25C11.75 10.6033 11.75 10.7803 11.6405 10.8905C11.5302 11 11.3525 11 11 11H9.5C9.14675 11 8.96975 11 8.8595 10.8905C8.75 10.7803 8.75 10.6025 8.75 10.25ZM8.8595 12.6095C8.75 12.7197 8.75 12.8975 8.75 13.25C8.75 13.6025 8.75 13.7803 8.8595 13.8905C8.96975 14 9.14675 14 9.5 14H11C11.3532 14 11.5302 14 11.6405 13.8905C11.75 13.7803 11.75 13.6025 11.75 13.25C11.75 12.8975 11.75 12.7197 11.6405 12.6095C11.5302 12.5 11.3525 12.5 11 12.5H9.5C9.14675 12.5 8.96975 12.5 8.8595 12.6095Z" fill="#E3BD56"/>
<path d="M4.25 1.25V3.5V1.25ZM11.75 1.25V3.5V1.25Z" fill="#E3BD56"/>
<path d="M4.25 1.25V3.5M11.75 1.25V3.5" stroke="#E3BD56" stroke-width="2" stroke-linecap="round"/>
</svg>
