<svg width="16" height="15" viewBox="0 0 16 15" fill="none" xmlns="http://www.w3.org/2000/svg">
<g clip-path="url(#clip0_6_237)">
<path d="M5.33333 15C5.92243 15 6.4 14.5203 6.4 13.9286C6.4 13.3369 5.92243 12.8572 5.33333 12.8572C4.74423 12.8572 4.26666 13.3369 4.26666 13.9286C4.26666 14.5203 4.74423 15 5.33333 15Z" fill="#737373"/>
<path d="M12.8 15C13.3891 15 13.8667 14.5203 13.8667 13.9286C13.8667 13.3369 13.3891 12.8572 12.8 12.8572C12.2109 12.8572 11.7333 13.3369 11.7333 13.9286C11.7333 14.5203 12.2109 15 12.8 15Z" fill="#737373"/>
<path d="M14.9333 2.67866H3.104L2.66667 0.428677C2.64173 0.305852 2.57471 0.195698 2.47726 0.117391C2.37981 0.0390836 2.2581 -0.00241846 2.13333 0.000108984H0V1.07153H1.696L3.73333 11.3572C3.75827 11.48 3.82529 11.5901 3.92274 11.6685C4.02019 11.7468 4.1419 11.7883 4.26667 11.7857H13.8667V10.7143H4.704L4.26667 8.57148H13.8667C13.99 8.5745 14.1105 8.53452 14.2077 8.45833C14.305 8.38215 14.3729 8.27447 14.4 8.15362L15.4667 3.33223C15.4845 3.25274 15.4841 3.17021 15.4654 3.09091C15.4468 3.01161 15.4103 2.93763 15.3589 2.87461C15.3075 2.81159 15.2424 2.76118 15.1687 2.72722C15.0949 2.69327 15.0144 2.67666 14.9333 2.67866ZM13.44 7.50005H4.064L3.31733 3.75008H14.2667L13.44 7.50005Z" fill="#737373"/>
</g>
<defs>
<clipPath id="clip0_6_237">
<rect width="16" height="15" fill="white"/>
</clipPath>
</defs>
</svg>
