<svg width="20" height="20" viewBox="0 0 20 20" fill="none" xmlns="http://www.w3.org/2000/svg">
<path d="M4.16666 12.5003H3.33332C2.8913 12.5003 2.46737 12.3247 2.15481 12.0122C1.84225 11.6996 1.66666 11.2757 1.66666 10.8337V3.33366C1.66666 2.89163 1.84225 2.46771 2.15481 2.15515C2.46737 1.84259 2.8913 1.66699 3.33332 1.66699H10.8333C11.2754 1.66699 11.6993 1.84259 12.0118 2.15515C12.3244 2.46771 12.5 2.89163 12.5 3.33366V4.16699M9.16666 7.50033H16.6667C17.5871 7.50033 18.3333 8.24652 18.3333 9.16699V16.667C18.3333 17.5875 17.5871 18.3337 16.6667 18.3337H9.16666C8.24618 18.3337 7.49999 17.5875 7.49999 16.667V9.16699C7.49999 8.24652 8.24618 7.50033 9.16666 7.50033Z" stroke="#1E1E1E" stroke-width="2" stroke-linecap="round" stroke-linejoin="round"/>
</svg>
