<svg width="20" height="20" viewBox="0 0 20 20" fill="none" xmlns="http://www.w3.org/2000/svg">
<path d="M18.3337 8.41678C18.417 8.00011 18.0837 7.50011 17.667 7.50011L12.917 6.83344L10.7503 2.50011C10.667 2.33344 10.5837 2.25011 10.417 2.16678C10.0003 1.91678 9.50033 2.08344 9.25033 2.50011L7.16699 6.83344L2.41699 7.50011C2.16699 7.50011 2.00033 7.58345 1.91699 7.75011C1.58366 8.08345 1.58366 8.58344 1.91699 8.91678L5.33366 12.2501L4.50033 17.0001C4.50033 17.1668 4.50033 17.3334 4.58366 17.5001C4.83366 17.9168 5.33366 18.0834 5.75033 17.8334L10.0003 15.5834L14.2503 17.8334C14.3337 17.9168 14.5003 17.9168 14.667 17.9168H14.8337C15.2503 17.8334 15.5837 17.4168 15.5003 16.9168L14.667 12.1668L18.0837 8.83344C18.2503 8.75011 18.3337 8.58345 18.3337 8.41678Z" fill="white"/>
</svg>
