<svg width="20" height="20" viewBox="0 0 20 20" fill="none" xmlns="http://www.w3.org/2000/svg">
<path d="M14.5833 5.41699H14.5917M5.83332 1.66699H14.1667C16.4678 1.66699 18.3333 3.53247 18.3333 5.83366V14.167C18.3333 16.4682 16.4678 18.3337 14.1667 18.3337H5.83332C3.53214 18.3337 1.66666 16.4682 1.66666 14.167V5.83366C1.66666 3.53247 3.53214 1.66699 5.83332 1.66699ZM13.3333 9.47533C13.4362 10.1689 13.3177 10.8772 12.9948 11.4995C12.6719 12.1218 12.1609 12.6265 11.5347 12.9417C10.9084 13.2569 10.1987 13.3667 9.50648 13.2553C8.81426 13.1439 8.17479 12.8171 7.67902 12.3213C7.18325 11.8255 6.85643 11.1861 6.74505 10.4938C6.63366 9.80162 6.74338 9.0919 7.0586 8.46564C7.37381 7.83937 7.87848 7.32844 8.50081 7.00553C9.12314 6.68261 9.83145 6.56415 10.525 6.66699C11.2324 6.7719 11.8874 7.10155 12.3931 7.60725C12.8988 8.11295 13.2284 8.76789 13.3333 9.47533Z" stroke="#1E1E1E" stroke-width="2" stroke-linecap="round" stroke-linejoin="round"/>
</svg>
