<svg width="14" height="15" viewBox="0 0 14 15" fill="none" xmlns="http://www.w3.org/2000/svg">
<g clip-path="url(#clip0_6_241)">
<path fill-rule="evenodd" clip-rule="evenodd" d="M10.0276 9.52907L13.7934 13.2949C13.9257 13.4274 14.0001 13.607 14 13.7943C13.9999 13.9815 13.9255 14.1611 13.793 14.2935C13.6606 14.4258 13.481 14.5001 13.2937 14.5001C13.1064 14.5 12.9269 14.4256 12.7945 14.2931L9.0287 10.5272C7.90295 11.3992 6.48731 11.8095 5.06977 11.6747C3.65223 11.54 2.33927 10.8702 1.39799 9.80178C0.456712 8.73333 -0.0421836 7.34641 0.0027973 5.92317C0.0477782 4.49993 0.633257 3.14729 1.64013 2.1404C2.647 1.13352 3.99963 0.548034 5.42285 0.503053C6.84607 0.458071 8.23297 0.956974 9.30142 1.89827C10.3699 2.83956 11.0396 4.15253 11.1743 5.57009C11.3091 6.98765 10.8988 8.4033 10.0269 9.52907H10.0276ZM5.60026 10.2997C6.71412 10.2997 7.78235 9.85726 8.56997 9.06963C9.35759 8.282 9.80007 7.21375 9.80007 6.09988C9.80007 4.98601 9.35759 3.91776 8.56997 3.13014C7.78235 2.34251 6.71412 1.90003 5.60026 1.90003C4.4864 1.90003 3.41817 2.34251 2.63055 3.13014C1.84293 3.91776 1.40046 4.98601 1.40046 6.09988C1.40046 7.21375 1.84293 8.282 2.63055 9.06963C3.41817 9.85726 4.4864 10.2997 5.60026 10.2997Z" fill="#D8D8D8"/>
</g>
<defs>
<clipPath id="clip0_6_241">
<rect width="14" height="14" fill="white" transform="translate(0 0.5)"/>
</clipPath>
</defs>
</svg>
