<svg width="17" height="12" viewBox="0 0 17 12" fill="none" xmlns="http://www.w3.org/2000/svg">
<path d="M8.14726 1.45361C13.232 1.45361 15.5794 6.14732 15.5794 6.14732C15.5794 6.14732 13.232 10.841 8.14726 10.841C3.06251 10.841 0.715088 6.14732 0.715088 6.14732C0.715088 6.14732 3.06251 1.45361 8.14726 1.45361Z" stroke="#667085" stroke-width="1.32779" stroke-linejoin="round"/>
<path d="M10.3655 6.14717C10.3723 6.45171 10.3182 6.75454 10.2064 7.03788C10.0945 7.32122 9.92722 7.57936 9.71425 7.79715C9.50127 8.01494 9.24694 8.18799 8.96617 8.30613C8.6854 8.42427 8.38385 8.48513 8.07924 8.48513C7.77463 8.48513 7.47308 8.42427 7.19232 8.30613C6.91155 8.18799 6.65721 8.01494 6.44424 7.79715C6.23126 7.57936 6.06395 7.32122 5.95211 7.03788C5.84028 6.75454 5.78618 6.45171 5.79299 6.14717C5.79299 5.54067 6.03392 4.95901 6.46279 4.53015C6.89165 4.10128 7.47331 3.86035 8.07981 3.86035C8.68632 3.86035 9.26798 4.10128 9.69684 4.53015C10.1257 4.95901 10.3666 5.54067 10.3666 6.14717H10.3655Z" stroke="#667085" stroke-width="1.32779" stroke-linejoin="round"/>
</svg>
