<svg width="12" height="12" viewBox="0 0 12 12" fill="none" xmlns="http://www.w3.org/2000/svg">
<path d="M1.281 11.25H3.375C3.4815 11.25 3.5705 11.286 3.642 11.358C3.7135 11.43 3.7495 11.5192 3.75 11.6257C3.7505 11.7322 3.7145 11.8212 3.642 11.8927C3.5695 11.9643 3.4805 12 3.375 12H0.606003C0.434503 12 0.290503 11.942 0.174003 11.826C0.0575031 11.71 -0.000496795 11.566 3.20513e-06 11.394V8.625C3.20513e-06 8.5185 0.0360032 8.4295 0.108003 8.358C0.180003 8.2865 0.269253 8.2505 0.375753 8.25C0.482253 8.2495 0.571253 8.2855 0.642753 8.358C0.714253 8.4305 0.750003 8.5195 0.750003 8.625V10.719L3.1845 8.2845C3.2545 8.2145 3.3405 8.177 3.4425 8.172C3.5445 8.167 3.6355 8.2045 3.7155 8.2845C3.7955 8.3645 3.8355 8.453 3.8355 8.55C3.8355 8.647 3.7955 8.7355 3.7155 8.8155L1.281 11.25ZM11.25 1.281L8.8155 3.7155C8.7455 3.7855 8.6595 3.823 8.5575 3.828C8.4555 3.833 8.3645 3.7955 8.2845 3.7155C8.2045 3.6355 8.1645 3.547 8.1645 3.45C8.1645 3.353 8.2045 3.2645 8.2845 3.1845L10.719 0.75H8.625C8.5185 0.75 8.4295 0.714 8.358 0.642C8.2865 0.57 8.2505 0.48075 8.25 0.37425C8.2495 0.26775 8.2855 0.17875 8.358 0.10725C8.4305 0.0357501 8.5195 0 8.625 0H11.394C11.566 0 11.71 0.0579999 11.826 0.174C11.942 0.29 12 0.434 12 0.606V3.375C12 3.4815 11.964 3.5705 11.892 3.642C11.82 3.7135 11.7308 3.7495 11.6243 3.75C11.5178 3.7505 11.4288 3.7145 11.3573 3.642C11.2857 3.5695 11.25 3.4805 11.25 3.375V1.281Z" fill="black"/>
</svg>
