<svg width="1236" height="330" viewBox="0 0 1236 330" fill="none" xmlns="http://www.w3.org/2000/svg">
<g clip-path="url(#clip0_1_8)">
<rect width="1236" height="193" fill="url(#paint0_linear_1_8)"/>
<path fill-rule="evenodd" clip-rule="evenodd" d="M-134 260L-74 224C-14 188 106 116 226 87C346 58 466 73 586 44C706 15 826 -57 946 -86C1066 -115 1186 -100 1246 -93L1306 -86V-129H1246C1186 -129 1066 -129 946 -129C826 -129 706 -129 586 -129C466 -129 346 -129 226 -129C106 -129 -14 -129 -74 -129H-134V260Z" fill="#E5C266"/>
<path d="M-22.6709 69.0568C-20.4948 68.6862 -18.4302 70.1484 -18.057 72.3234L-18.0566 72.3256L-18.0528 72.3462C-18.0477 72.3741 -18.0385 72.4235 -18.0247 72.4928C-17.9973 72.6316 -17.952 72.8499 -17.8863 73.1363C-17.7545 73.7101 -17.5419 74.5516 -17.2274 75.5706C-16.5941 77.6231 -15.571 80.3196 -14.0143 82.9798C-10.9035 88.2961 -6.00236 93 2.00064 93C10.3308 93 16.7713 88.0431 24.5063 81.873L24.9186 81.544C28.9633 78.3157 33.4088 74.7676 38.5349 72.2712C42.5589 70.3116 47.0023 69 52.0006 69C56.9769 69 61.4032 70.3 65.4131 72.2453C70.5618 74.743 75.024 78.3045 79.0827 81.544L79.495 81.873C87.23 88.0431 93.6705 93 102.001 93C110.331 93 116.771 88.0431 124.506 81.873L124.919 81.544C129.016 78.2739 133.524 74.6756 138.734 72.1747C142.706 70.2686 147.085 69 152.001 69C156.895 69 161.257 70.2573 165.214 72.1493C170.447 74.6512 174.972 78.2628 179.083 81.544L179.495 81.873C187.23 88.0431 193.67 93 202.001 93C210.065 93 215.364 88.2248 218.861 82.8256C220.601 80.1386 221.801 77.4209 222.566 75.3584C222.947 74.3336 223.213 73.4873 223.382 72.9099C223.466 72.6216 223.526 72.4016 223.562 72.2614C223.58 72.1913 223.593 72.1412 223.6 72.1127L223.605 72.0931L223.606 72.0888L223.606 72.0871L223.607 72.0856C224.111 69.9384 226.258 68.6039 228.408 69.1042C230.559 69.6051 231.897 71.7553 231.396 73.9069L227.501 73C231.396 73.9069 231.396 73.9085 231.396 73.9102L231.395 73.914L231.393 73.9234L231.387 73.9486L231.368 74.025C231.353 74.0873 231.331 74.172 231.304 74.2777C231.249 74.489 231.169 74.7847 231.061 75.1526C230.847 75.8877 230.521 76.9164 230.067 78.1416C229.162 80.5791 227.721 83.8614 225.575 87.1744C221.3 93.7752 213.849 101 202.001 101C190.635 101 182.138 94.2184 174.919 88.456L174.506 88.127C166.771 81.9569 160.331 77 152.001 77C143.67 77 137.23 81.9569 129.495 88.127L129.083 88.456C121.863 94.2184 113.366 101 102.001 101C90.635 101 82.1384 94.2184 74.9186 88.456L74.5063 88.127C66.7713 81.9569 60.3308 77 52.0006 77C43.6705 77 37.23 81.9569 29.495 88.127L29.0827 88.456C21.8629 94.2184 13.3663 101 2.00064 101C-9.90927 101 -17.0081 93.7039 -20.9191 87.0202C-22.8733 83.6804 -24.1165 80.3769 -24.8718 77.9294C-25.2516 76.6984 -25.5139 75.6649 -25.6834 74.9262C-25.7683 74.5564 -25.8303 74.2591 -25.8725 74.0463C-25.8935 73.9398 -25.9097 73.8544 -25.9212 73.7915L-25.9352 73.7141L-25.9397 73.6884L-25.9413 73.6788L-25.942 73.6749C-25.9423 73.6732 -25.9426 73.6715 -21.9994 73L-25.9426 73.6715C-26.3135 71.4937 -24.8487 69.4276 -22.6709 69.0568Z" fill="#F9FAFB"/>
<path d="M-18.057 38.3233C-18.4302 36.1484 -20.4948 34.6862 -22.6709 35.0568C-24.8487 35.4276 -26.3135 37.4937 -25.9426 39.6715L-21.9994 39C-25.9426 39.6715 -25.9423 39.6732 -25.942 39.6749L-25.9413 39.6788L-25.9397 39.6884L-25.9352 39.7141L-25.9212 39.7915C-25.9097 39.8544 -25.8935 39.9398 -25.8725 40.0463C-25.8303 40.2591 -25.7683 40.5564 -25.6834 40.9262C-25.5139 41.6649 -25.2516 42.6984 -24.8718 43.9294C-24.1165 46.3769 -22.8733 49.6804 -20.9191 53.0202C-17.0081 59.7039 -9.90927 67 2.00064 67C13.3663 67 21.8629 60.2184 29.0827 54.456L29.495 54.127C37.23 47.9569 43.6705 43 52.0006 43C60.3308 43 66.7713 47.9569 74.5063 54.127L74.9186 54.456C82.1384 60.2184 90.635 67 102.001 67C113.366 67 121.863 60.2184 129.083 54.456L129.495 54.127C137.23 47.9569 143.67 43 152.001 43C160.331 43 166.771 47.9569 174.506 54.127L174.919 54.456C182.138 60.2184 190.635 67 202.001 67C213.849 67 221.3 59.7752 225.575 53.1744C227.721 49.8614 229.162 46.5791 230.067 44.1416C230.521 42.9164 230.847 41.8877 231.061 41.1526C231.169 40.7847 231.249 40.489 231.304 40.2777C231.331 40.172 231.353 40.0873 231.368 40.025L231.387 39.9486L231.393 39.9234L231.395 39.914L231.396 39.9102C231.396 39.9085 231.396 39.9069 227.501 39L231.396 39.9069C231.897 37.7553 230.559 35.6051 228.408 35.1042C226.258 34.6039 224.111 35.9384 223.607 38.0856L223.606 38.0871L223.606 38.0888L223.605 38.0931L223.6 38.1127C223.593 38.1412 223.58 38.1913 223.562 38.2614C223.526 38.4016 223.466 38.6216 223.382 38.9099C223.213 39.4873 222.947 40.3336 222.566 41.3584C221.801 43.4209 220.601 46.1386 218.861 48.8256C215.364 54.2248 210.065 59 202.001 59C193.67 59 187.23 54.0431 179.495 47.873L179.083 47.544C174.972 44.2628 170.447 40.6511 165.214 38.1493C161.257 36.2573 156.895 35 152.001 35C147.085 35 142.706 36.2686 138.734 38.1748C133.524 40.6756 129.016 44.2739 124.919 47.544L124.506 47.873C116.771 54.0431 110.331 59 102.001 59C93.6705 59 87.23 54.0431 79.495 47.873L79.0827 47.544C75.024 44.3045 70.5618 40.743 65.4131 38.2453C61.4032 36.3 56.9769 35 52.0006 35C47.0023 35 42.5589 36.3115 38.5349 38.2712C33.4088 40.7676 28.9633 44.3157 24.9186 47.544L24.5063 47.873C16.7713 54.0431 10.3308 59 2.00064 59C-6.00236 59 -10.9035 54.2961 -14.0143 48.9798C-15.571 46.3196 -16.5941 43.6231 -17.2274 41.5706C-17.5419 40.5516 -17.7545 39.7101 -17.8863 39.1363C-17.952 38.8499 -17.9973 38.6316 -18.0247 38.4928C-18.0385 38.4235 -18.0477 38.3741 -18.0528 38.3462L-18.0566 38.3256L-18.057 38.3233Z" fill="#F9FAFB"/>
<path d="M-18.0566 4.32565L-18.0568 4.32463C-18.4294 2.14897 -20.4944 0.686127 -22.6709 1.05677C-24.8487 1.42764 -26.3135 3.49373 -25.9426 5.67152L-21.9994 5C-25.9426 5.67152 -25.9423 5.67316 -25.942 5.6749L-25.9413 5.67884L-25.9397 5.68839L-25.9352 5.7141L-25.9212 5.79147C-25.9097 5.85439 -25.8935 5.93982 -25.8725 6.04626C-25.8303 6.25907 -25.7683 6.55639 -25.6834 6.92621C-25.5139 7.66491 -25.2516 8.6984 -24.8718 9.92944C-24.1165 12.3769 -22.8733 15.6804 -20.9191 19.0202C-17.0081 25.7039 -9.90927 33 2.00064 33C13.3663 33 21.8629 26.2184 29.0827 20.456L29.495 20.127C37.23 13.9569 43.6705 9 52.0006 9C60.3308 9 66.7713 13.9569 74.5063 20.127L74.9186 20.456C82.1384 26.2184 90.635 33 102.001 33C113.366 33 121.863 26.2184 129.083 20.456L129.495 20.127C137.23 13.9569 143.67 9 152.001 9C160.331 9 166.771 13.9569 174.506 20.127L174.919 20.456C182.138 26.2184 190.635 33 202.001 33C213.849 33 221.3 25.7752 225.575 19.1744C227.721 15.8614 229.162 12.5791 230.067 10.1416C230.521 8.91638 230.847 7.88771 231.061 7.15264C231.169 6.78468 231.249 6.48904 231.304 6.27771C231.331 6.172 231.353 6.08727 231.368 6.02501L231.387 5.94861L231.393 5.92336L231.395 5.91403L231.396 5.9102C231.396 5.90852 231.396 5.90693 227.501 5L231.396 5.90693C231.897 3.75533 230.559 1.60506 228.408 1.10417C226.258 0.603867 224.111 1.93838 223.607 4.08563L223.606 4.08705L223.606 4.08883L223.605 4.09307L223.6 4.11269C223.597 4.1256 223.592 4.1429 223.587 4.16446C223.58 4.19058 223.572 4.22296 223.562 4.26135C223.526 4.40159 223.466 4.62157 223.382 4.90986C223.213 5.48729 222.947 6.33362 222.566 7.35841C221.801 9.42089 220.601 12.1386 218.861 14.8256C215.364 20.2248 210.065 25 202.001 25C193.67 25 187.23 20.0431 179.495 13.873L179.083 13.544C174.972 10.2628 170.447 6.65114 165.214 4.14927C161.257 2.25734 156.895 1 152.001 1C147.085 1 142.706 2.26864 138.734 4.17475C133.524 6.67564 129.016 10.2739 124.919 13.544L124.506 13.873C116.771 20.0431 110.331 25 102.001 25C93.6705 25 87.23 20.0431 79.495 13.873L79.0827 13.544C75.024 10.3045 70.5618 6.74302 65.4131 4.24532C61.4032 2.30001 56.9769 1 52.0006 1C47.0023 1 42.5589 2.31155 38.5349 4.27119C33.4088 6.76756 28.9634 10.3157 24.9187 13.5439L24.5063 13.873C16.7713 20.0431 10.3308 25 2.00064 25C-6.00236 25 -10.9035 20.2961 -14.0143 14.9798C-15.571 12.3196 -16.5941 9.62312 -17.2274 7.57056C-17.5419 6.5516 -17.7545 5.71009 -17.8863 5.13629C-17.952 4.84986 -17.9973 4.63155 -18.0247 4.4928C-18.0385 4.42346 -18.0477 4.37412 -18.0528 4.34622L-18.0566 4.32565Z" fill="#F9FAFB"/>
<path d="M24.1618 166.826L51.4349 138.357L13.1435 128.972L24.1618 166.826Z" fill="#F97066"/>
<path d="M98.5378 147.126L99.8274 207.232L47.1292 178.295L50.3116 176.366L96.4853 201.72L95.3554 149.055L98.5378 147.126Z" fill="#F97066"/>
<path d="M91.6096 151.326L92.5516 195.232L54.0574 174.095L91.6096 151.326Z" fill="#F97066"/>
<path d="M114.275 102.689L91.8005 116.316L114.839 128.966L114.275 102.689Z" fill="#F97066" stroke="white" stroke-width="1.89682"/>
<path d="M173.889 27.8832L188.839 12.2779L167.849 7.13365L173.889 27.8832Z" fill="#F97066"/>
<path d="M214.658 17.0847L215.365 50.032L186.478 34.1705L188.223 33.1128L213.533 47.0105L212.914 18.1424L214.658 17.0847Z" fill="#F97066"/>
<path d="M210.86 19.3873L211.377 43.4542L190.276 31.8679L210.86 19.3873Z" fill="#F97066"/>
<path d="M223.285 -7.27404L210.965 0.19551L223.594 7.12979L223.285 -7.27404Z" fill="#F97066" stroke="white" stroke-width="1.03975"/>
<path d="M122.637 38.3304L113.888 58.0912L135.376 55.787L122.637 38.3304Z" fill="#F97066"/>
<path d="M88.1495 88.1968L97.1926 76.9812L82.9581 74.7574L88.1495 88.1968Z" fill="#F97066" stroke="white" stroke-width="1.03975"/>
<path d="M439.637 25.3304L430.888 45.0912L452.376 42.787L439.637 25.3304Z" fill="#F97066"/>
<path d="M405.15 75.1968L414.193 63.9812L399.958 61.7574L405.15 75.1968Z" fill="#F97066" stroke="white" stroke-width="1.03975"/>
</g>
<defs>
<linearGradient id="paint0_linear_1_8" x1="618.503" y1="3.98726e-06" x2="618.503" y2="193" gradientUnits="userSpaceOnUse">
<stop stop-color="#E3BD56"/>
<stop offset="1" stop-color="white" stop-opacity="0"/>
</linearGradient>
<clipPath id="clip0_1_8">
<path d="M0 330H1236V10C1236 4.47714 1231.52 0 1226 0H10C4.47715 0 0 4.47714 0 10V330Z" fill="white"/>
</clipPath>
</defs>
</svg>
