<svg width="390" height="192" viewBox="0 0 390 192" fill="none" xmlns="http://www.w3.org/2000/svg">
<g clip-path="url(#clip0_4344_3554)">
<rect x="-42" width="717" height="111.959" fill="url(#paint0_linear_4344_3554)"/>
<path fill-rule="evenodd" clip-rule="evenodd" d="M-119.732 150.825L-84.9266 129.942C-50.1208 109.058 19.4909 67.2912 89.1026 50.4684C158.714 33.6456 228.326 42.347 297.938 25.5242C367.549 8.7014 437.161 -33.0656 506.772 -49.8884C576.384 -66.7112 645.996 -58.0098 680.802 -53.9491L715.607 -49.8884V-74.8326H680.802C645.996 -74.8326 576.384 -74.8326 506.772 -74.8326C437.161 -74.8326 367.549 -74.8326 297.938 -74.8326C228.326 -74.8326 158.714 -74.8326 89.1026 -74.8326C19.4909 -74.8326 -50.1208 -74.8326 -84.9266 -74.8326H-119.732V150.825Z" fill="#E5C266"/>
<path d="M-28.1508 40.0597C-26.8885 39.8447 -25.6908 40.6929 -25.4743 41.9546L-25.4741 41.9559L-25.4719 41.9679C-25.4689 41.9841 -25.4636 42.0127 -25.4556 42.0529C-25.4397 42.1334 -25.4134 42.26 -25.3753 42.4262C-25.2989 42.759 -25.1755 43.2472 -24.9931 43.8383C-24.6257 45.029 -24.0322 46.5932 -23.1292 48.1364C-21.3246 51.2204 -18.4815 53.9491 -13.8389 53.9491C-9.00664 53.9491 -5.27054 51.0736 -0.783485 47.4943L-0.544296 47.3035C1.80202 45.4307 4.38083 43.3725 7.3545 41.9243C9.68879 40.7876 12.2664 40.0267 15.1659 40.0267C18.0526 40.0267 20.6203 40.7809 22.9465 41.9093C25.9332 43.3582 28.5217 45.4243 30.8761 47.3035L31.1153 47.4943C35.6024 51.0736 39.3385 53.9491 44.1708 53.9491C49.0031 53.9491 52.7392 51.0736 57.2262 47.4943L57.4654 47.3035C59.8421 45.4065 62.4573 43.3192 65.4799 41.8684C67.7836 40.7627 70.3239 40.0267 73.1756 40.0267C76.0146 40.0267 78.5449 40.7561 80.8405 41.8536C83.8761 43.305 86.5011 45.4001 88.8858 47.3035L89.125 47.4943C93.6121 51.0736 97.3482 53.9491 102.18 53.9491C106.859 53.9491 109.932 51.179 111.961 48.0469C112.97 46.4882 113.667 44.9117 114.111 43.7152C114.331 43.1208 114.486 42.6298 114.584 42.2948C114.633 42.1276 114.667 42 114.688 41.9186C114.699 41.878 114.706 41.849 114.71 41.8324L114.713 41.821L114.714 41.8186L114.714 41.8175L114.714 41.8167C115.006 40.5711 116.252 39.7969 117.499 40.0872C118.747 40.3777 119.523 41.6251 119.233 42.8732L116.973 42.3471C119.233 42.8732 119.233 42.8742 119.232 42.8751L119.232 42.8774L119.231 42.8828L119.227 42.8974L119.216 42.9417C119.208 42.9778 119.195 43.027 119.179 43.0883C119.147 43.2109 119.101 43.3824 119.038 43.5959C118.914 44.0223 118.725 44.619 118.461 45.3298C117.937 46.7437 117.101 48.6478 115.856 50.5697C113.376 54.3987 109.054 58.5898 102.18 58.5898C95.5873 58.5898 90.6584 54.6559 86.4703 51.3131L86.2311 51.1223C81.744 47.543 78.0079 44.6675 73.1756 44.6675C68.3433 44.6675 64.6072 47.543 60.1202 51.1223L59.881 51.3131C55.6928 54.6559 50.764 58.5898 44.1708 58.5898C37.5776 58.5898 32.6487 54.6559 28.4606 51.3131L28.2214 51.1223C23.7343 47.543 19.9982 44.6675 15.1659 44.6675C10.3336 44.6675 6.59752 47.543 2.11046 51.1223L1.87127 51.3131C-2.31688 54.6559 -7.24576 58.5898 -13.8389 58.5898C-20.7478 58.5898 -24.8659 54.3574 -27.1346 50.4802C-28.2683 48.5428 -28.9894 46.6264 -29.4276 45.2067C-29.6479 44.4926 -29.8 43.893 -29.8984 43.4645C-29.9476 43.25 -29.9836 43.0775 -30.008 42.9541C-30.0203 42.8923 -30.0296 42.8428 -30.0363 42.8063L-30.0444 42.7614L-30.047 42.7465L-30.048 42.7409L-30.0484 42.7386C-30.0486 42.7376 -30.0487 42.7367 -27.7613 42.3471L-30.0487 42.7367C-30.2639 41.4733 -29.4141 40.2748 -28.1508 40.0597Z" fill="#F9FAFB"/>
<path d="M-25.4743 22.2313C-25.6908 20.9696 -26.8885 20.1214 -28.1508 20.3364C-29.4141 20.5515 -30.2639 21.75 -30.0487 23.0134L-27.7613 22.6238C-30.0487 23.0134 -30.0486 23.0143 -30.0484 23.0153L-30.048 23.0176L-30.047 23.0232L-30.0444 23.0381L-30.0363 23.083C-30.0296 23.1195 -30.0203 23.169 -30.008 23.2308C-29.9836 23.3542 -29.9476 23.5267 -29.8984 23.7412C-29.8 24.1697 -29.6479 24.7693 -29.4276 25.4834C-28.9894 26.9031 -28.2683 28.8195 -27.1346 30.7569C-24.8659 34.6341 -20.7478 38.8665 -13.8389 38.8665C-7.24576 38.8665 -2.31688 34.9326 1.87127 31.5898L2.11046 31.399C6.59752 27.8197 10.3336 24.9442 15.1659 24.9442C19.9982 24.9442 23.7343 27.8197 28.2214 31.399L28.4606 31.5898C32.6487 34.9326 37.5776 38.8665 44.1708 38.8665C50.764 38.8665 55.6928 34.9326 59.881 31.5898L60.1202 31.399C64.6072 27.8197 68.3433 24.9442 73.1756 24.9442C78.0079 24.9442 81.744 27.8197 86.2311 31.399L86.4703 31.5898C90.6584 34.9326 95.5873 38.8665 102.18 38.8665C109.054 38.8665 113.376 34.6754 115.856 30.8464C117.101 28.9245 117.937 27.0204 118.461 25.6064C118.725 24.8957 118.914 24.299 119.038 23.8726C119.101 23.6591 119.147 23.4876 119.179 23.365C119.195 23.3037 119.208 23.2545 119.216 23.2184L119.227 23.1741L119.231 23.1595L119.232 23.1541L119.232 23.1518C119.233 23.1509 119.233 23.1499 116.973 22.6238L119.233 23.1499C119.523 21.9018 118.747 20.6544 117.499 20.3639C116.252 20.0736 115.006 20.8478 114.714 22.0934L114.714 22.0942L114.714 22.0953L114.713 22.0977L114.71 22.1091C114.706 22.1257 114.699 22.1547 114.688 22.1953C114.667 22.2767 114.633 22.4043 114.584 22.5715C114.486 22.9065 114.331 23.3975 114.111 23.9919C113.667 25.1884 112.97 26.7649 111.961 28.3236C109.932 31.4557 106.859 34.2258 102.18 34.2258C97.3482 34.2258 93.6121 31.3503 89.125 27.771L88.8858 27.5802C86.5011 25.6768 83.8761 23.5816 80.8405 22.1303C78.5449 21.0328 76.0146 20.3034 73.1756 20.3034C70.3239 20.3034 67.7836 21.0394 65.4799 22.1451C62.4573 23.5959 59.8421 25.6832 57.4654 27.5802L57.2262 27.771C52.7392 31.3503 49.0031 34.2258 44.1708 34.2258C39.3385 34.2258 35.6024 31.3503 31.1153 27.771L30.8761 27.5802C28.5217 25.701 25.9332 23.6349 22.9465 22.186C20.6203 21.0576 18.0526 20.3034 15.1659 20.3034C12.2664 20.3034 9.68879 21.0643 7.3545 22.201C4.38083 23.6492 1.80202 25.7074 -0.544296 27.5802L-0.783485 27.771C-5.27054 31.3503 -9.00664 34.2258 -13.8389 34.2258C-18.4815 34.2258 -21.3246 31.4971 -23.1292 28.4131C-24.0322 26.8699 -24.6257 25.3057 -24.9931 24.115C-25.1755 23.5239 -25.2989 23.0357 -25.3753 22.7029C-25.4134 22.5367 -25.4397 22.4101 -25.4556 22.3296C-25.4636 22.2894 -25.4689 22.2608 -25.4719 22.2446L-25.4741 22.2326L-25.4743 22.2313Z" fill="#F9FAFB"/>
<path d="M-25.4741 2.50934L-25.4742 2.50874C-25.6904 1.24665 -26.8882 0.39806 -28.1508 0.613068C-29.4141 0.828205 -30.2639 2.02674 -30.0487 3.29007L-27.7613 2.90052C-30.0487 3.29007 -30.0486 3.29102 -30.0484 3.29203L-30.048 3.29432L-30.047 3.29986L-30.0444 3.31477L-30.0363 3.35966C-30.0296 3.39616 -30.0203 3.44571 -30.008 3.50746C-29.9836 3.63091 -29.9476 3.80338 -29.8984 4.01791C-29.8 4.44643 -29.6479 5.04596 -29.4276 5.76008C-28.9894 7.17983 -28.2683 9.09621 -27.1346 11.0336C-24.8659 14.9108 -20.7478 19.1432 -13.8389 19.1432C-7.24576 19.1432 -2.31688 15.2093 1.87127 11.8665L2.11046 11.6757C6.59752 8.0964 10.3336 5.22091 15.1659 5.22091C19.9982 5.22091 23.7343 8.0964 28.2214 11.6757L28.4606 11.8665C32.6487 15.2093 37.5776 19.1432 44.1708 19.1432C50.764 19.1432 55.6928 15.2093 59.881 11.8665L60.1202 11.6757C64.6072 8.0964 68.3433 5.22091 73.1756 5.22091C78.0079 5.22091 81.744 8.0964 86.2311 11.6757L86.4703 11.8665C90.6584 15.2093 95.5873 19.1432 102.18 19.1432C109.054 19.1432 113.376 14.9521 115.856 11.1231C117.101 9.20116 117.937 7.29714 118.461 5.88315C118.725 5.17241 118.914 4.57568 119.038 4.14927C119.101 3.93581 119.147 3.76431 119.179 3.64172C119.195 3.5804 119.208 3.53125 119.216 3.49513L119.227 3.45081L119.231 3.43616L119.232 3.43075L119.232 3.42853C119.233 3.42756 119.233 3.42663 116.973 2.90052L119.233 3.42663C119.523 2.17849 118.747 0.931126 117.499 0.640564C116.252 0.350342 115.006 1.12449 114.714 2.3701L114.714 2.37093L114.714 2.37196L114.713 2.37442L114.71 2.3858C114.708 2.39328 114.706 2.40332 114.703 2.41583C114.699 2.43098 114.694 2.44977 114.688 2.47204C114.667 2.55339 114.633 2.681 114.584 2.84823C114.486 3.1832 114.331 3.67415 114.111 4.26863C113.667 5.46507 112.97 7.04163 111.961 8.60033C109.932 11.7324 106.859 14.5025 102.18 14.5025C97.3482 14.5025 93.6121 11.627 89.125 8.04772L88.8858 7.85686C86.5011 5.95346 83.8761 3.85835 80.8405 2.40702C78.5449 1.30951 76.0146 0.580135 73.1756 0.580135C70.3239 0.580135 67.7836 1.31607 65.4799 2.4218C62.4573 3.87256 59.8421 5.9599 57.4654 7.85686L57.2262 8.04772C52.7392 11.627 49.0031 14.5025 44.1708 14.5025C39.3385 14.5025 35.6024 11.627 31.1153 8.04772L30.8761 7.85685C28.5217 5.97767 25.9332 3.91164 22.9465 2.46273C20.6203 1.33427 18.0526 0.580135 15.1659 0.580135C12.2664 0.580135 9.68879 1.34096 7.35449 2.47774C4.38084 3.92588 1.80205 5.98413 -0.544264 7.85682L-0.783485 8.04772C-5.27054 11.627 -9.00664 14.5025 -13.8389 14.5025C-18.4815 14.5025 -21.3246 11.7738 -23.1292 8.6898C-24.0322 7.14658 -24.6257 5.58239 -24.9931 4.3917C-25.1755 3.8006 -25.2989 3.31245 -25.3753 2.97959C-25.4134 2.81343 -25.4397 2.68679 -25.4556 2.6063C-25.4636 2.56607 -25.4689 2.53745 -25.4719 2.52127L-25.4741 2.50934Z" fill="#F9FAFB"/>
<path d="M15.1621 85.3468L15.9102 120.214L-14.6599 103.428L-12.8138 102.309L13.9714 117.017L13.3159 86.4661L15.1621 85.3468Z" fill="#F97066"/>
<path d="M11.143 87.7836L11.6895 113.253L-10.6409 100.992L11.143 87.7836Z" fill="#F97066"/>
<path d="M24.2914 59.569L11.2539 67.4738L24.6185 74.8122L24.2914 59.569Z" fill="#F97066" stroke="white" stroke-width="1.10034"/>
<path d="M330.756 44.8487L346.577 28.3339L324.364 22.8899L330.756 44.8487Z" fill="#F97066"/>
<path d="M373.901 33.42L374.649 68.2874L344.079 51.5016L345.925 50.3822L372.711 65.0898L372.055 34.5394L373.901 33.42Z" fill="#F97066"/>
<path d="M369.882 35.8568L370.429 61.3262L348.098 49.0648L369.882 35.8568Z" fill="#F97066"/>
<path d="M383.031 7.64224L369.993 15.5471L383.358 22.8855L383.031 7.64224Z" fill="#F97066" stroke="white" stroke-width="1.10034"/>
<path d="M58.8726 16.1746L67.5449 7.12194L55.3689 4.13779L58.8726 16.1746Z" fill="#F97066"/>
<path d="M82.5219 9.91082L82.932 29.0235L66.1749 19.8223L67.1868 19.2087L81.8692 27.2707L81.5099 10.5244L82.5219 9.91082Z" fill="#F97066"/>
<path d="M80.3188 11.2466L80.6184 25.2077L68.3779 18.4865L80.3188 11.2466Z" fill="#F97066"/>
<path d="M87.5262 -4.21965L80.3796 0.113416L87.7054 4.13597L87.5262 -4.21965Z" fill="#F97066" stroke="white" stroke-width="0.603154"/>
<path d="M29.1403 22.2351L24.0655 33.6983L36.5304 32.3617L29.1403 22.2351Z" fill="#F97066"/>
<path d="M9.1339 51.1622L14.3798 44.6561L6.12237 43.3661L9.1339 51.1622Z" fill="#F97066" stroke="white" stroke-width="0.603154"/>
<path d="M213.032 14.6941L207.957 26.1573L220.422 24.8206L213.032 14.6941Z" fill="#F97066"/>
<path d="M193.025 43.6216L198.271 37.1155L190.014 35.8255L193.025 43.6216Z" fill="#F97066" stroke="white" stroke-width="0.603154"/>
</g>
<defs>
<linearGradient id="paint0_linear_4344_3554" x1="316.792" y1="2.313e-06" x2="316.792" y2="111.959" gradientUnits="userSpaceOnUse">
<stop stop-color="#E3BD56"/>
<stop offset="1" stop-color="white" stop-opacity="0"/>
</linearGradient>
<clipPath id="clip0_4344_3554">
<path d="M-42 191.432H675V5.80106C675 2.59727 672.403 9.15527e-05 669.199 9.15527e-05H-36.199C-39.4028 9.15527e-05 -42 2.59727 -42 5.80106V191.432Z" fill="white"/>
</clipPath>
</defs>
</svg>
